<?xml version="1.0"?>
<svg xmlns="http://www.w3.org/2000/svg" class="img-fluid" id="outputsvg" style="transform: matrix(1.32068, 0, 0, 1.32068, 0, 0); transform-origin: 50% 50%; cursor: move; max-height: none; transition: transform 200ms ease-in-out 0s;" width="2500" height="2500" viewBox="0 0 25000 25000">
  <g id="l01EjTSkSGS9s3AuEi41ysb" fill="rgb(255,215,63)" style="transform: none;">
    <g>
      <path id="pSHyKQJsb" d="M 12140 23430 c -1627 -54 -3210 -464 -4645 -1204 -1944 -1003 -3567 -2589 -4607 -4506 -142 -260 -171 -321 -160 -332 5 -5 50 -16 98 -24 49 -8 125 -21 169 -29 149 -26 250 -44 375 -65 69 -12 161 -28 205 -35 44 -8 118 -21 165 -30 114 -20 249 -44 340 -60 163 -30 384 -69 540 -95 69 -12 161 -28 205 -35 44 -8 118 -21 165 -30 47 -8 123 -21 170 -30 114 -20 249 -44 340 -60 163 -30 384 -69 540 -95 69 -12 161 -28 205 -35 44 -8 119 -21 167 -30 95 -16 218 -38 338 -60 41 -8 114 -21 163 -29 48 -9 124 -22 170 -30 45 -8 138 -24 207 -36 69 -12 162 -28 207 -36 46 -8 121 -21 168 -29 96 -17 224 -40 335 -60 41 -8 114 -21 163 -29 48 -9 124 -22 170 -30 45 -8 138 -24 207 -36 69 -12 162 -28 207 -36 46 -8 121 -21 168 -29 96 -17 224 -40 335 -60 41 -8 114 -21 163 -29 48 -9 124 -22 170 -30 45 -8 138 -24 207 -36 69 -12 162 -28 207 -36 46 -8 121 -21 168 -29 96 -17 224 -40 335 -60 41 -8 114 -21 163 -29 94 -17 208 -37 340 -60 45 -8 138 -24 207 -36 69 -12 162 -28 207 -36 46 -8 122 -21 170 -30 86 -15 180 -31 333 -59 163 -30 384 -69 540 -95 69 -12 161 -28 205 -35 44 -8 121 -22 170 -30 50 -9 124 -22 165 -30 111 -20 239 -43 335 -60 47 -8 122 -21 168 -29 45 -8 138 -24 207 -36 69 -12 162 -28 207 -36 46 -8 121 -21 168 -29 96 -17 224 -40 335 -60 41 -8 114 -21 163 -29 48 -9 124 -22 170 -30 45 -8 138 -24 207 -36 69 -12 162 -28 207 -36 46 -8 121 -21 168 -29 96 -17 224 -40 335 -60 41 -8 114 -21 163 -29 48 -9 124 -22 170 -30 45 -8 138 -24 207 -36 69 -12 162 -28 207 -36 46 -8 121 -21 168 -29 47 -9 123 -22 170 -30 96 -17 224 -40 335 -60 163 -30 384 -69 540 -95 69 -12 161 -28 205 -35 44 -8 121 -22 170 -30 50 -9 124 -22 165 -30 91 -16 226 -40 340 -60 47 -9 121 -22 165 -30 44 -7 136 -23 205 -35 69 -12 161 -28 205 -35 44 -8 118 -21 165 -30 114 -20 249 -44 340 -60 41 -8 116 -21 165 -30 50 -8 126 -22 170 -30 44 -7 136 -23 205 -35 69 -12 161 -28 205 -35 44 -8 118 -21 165 -30 114 -20 249 -44 340 -60 41 -8 116 -21 165 -30 50 -8 126 -22 170 -30 44 -7 136 -23 205 -35 69 -12 161 -28 205 -35 44 -8 118 -21 165 -30 114 -20 249 -44 340 -60 85 -16 202 -37 335 -60 50 -8 126 -22 170 -30 44 -7 136 -23 205 -35 69 -12 163 -28 210 -36 47 -9 112 -19 145 -25 33 -5 81 -14 106 -21 l 47 -11 7 -79 6 -78 30 0 c 19 0 29 5 29 15 0 36 -64 516 -90 674 -416 2523 -1720 4839 -3665 6506 -2091 1792 -4743 2726 -7485 2635 z "/>
      <path id="psN40uZVV" d="M 1790 10271 c 0 -4 18 -89 41 -187 416 -1825 1268 -3478 2513 -4874 176 -197 542 -568 751 -761 1108 -1023 2450 -1820 3879 -2305 1029 -349 2062 -537 3156 -573 151 -6 283 -13 293 -17 10 -4 100 -2 200 4 100 7 295 16 432 22 528 22 1057 88 1620 201 2824 567 5334 2257 6930 4664 95 143 182 277 194 298 l 23 37 -36 0 c -31 0 -36 -3 -36 -23 0 -26 6 -26 -180 7 -47 8 -141 24 -210 36 -69 12 -161 28 -205 35 -44 8 -120 22 -170 30 -87 15 -175 31 -335 60 -41 8 -115 21 -165 30 -110 19 -234 41 -340 60 -44 7 -136 23 -205 35 -197 33 -419 72 -710 125 -41 8 -114 21 -163 29 -48 9 -124 22 -170 30 -45 8 -138 24 -207 36 -69 12 -162 28 -207 36 -46 8 -121 21 -168 29 -96 17 -224 40 -335 60 -41 8 -114 21 -163 29 -48 9 -124 22 -170 30 -45 8 -138 24 -207 36 -69 12 -162 28 -207 36 -46 8 -121 21 -168 29 -96 17 -224 40 -335 60 -41 8 -114 21 -163 29 -48 9 -124 22 -170 30 -45 8 -138 24 -207 36 -69 12 -162 28 -207 36 -46 8 -121 21 -168 29 -96 17 -224 40 -335 60 -41 8 -114 21 -163 29 -48 9 -124 22 -170 30 -45 8 -138 24 -207 36 -69 12 -162 28 -207 36 -46 8 -121 21 -168 29 -47 9 -123 22 -170 30 -96 17 -224 40 -335 60 -41 8 -114 21 -163 29 -48 9 -124 22 -170 30 -45 8 -138 24 -207 36 -69 12 -162 28 -207 36 -46 8 -121 21 -168 29 -96 17 -224 40 -335 60 -41 8 -114 21 -163 29 -48 9 -124 22 -170 30 -45 8 -138 24 -207 36 -69 12 -162 28 -207 36 -46 8 -121 21 -168 29 -96 17 -224 40 -335 60 -41 8 -114 21 -163 29 -48 9 -124 22 -170 30 -45 8 -138 24 -207 36 -69 12 -162 28 -207 36 -46 8 -121 21 -168 29 -96 17 -224 40 -335 60 -41 8 -114 21 -163 29 -48 9 -124 22 -170 30 -45 8 -138 24 -207 36 -69 12 -162 28 -207 36 -46 8 -121 21 -168 29 -96 17 -224 40 -335 60 -41 8 -114 21 -163 29 -94 17 -208 37 -340 60 -45 8 -138 24 -207 36 -69 12 -162 28 -207 36 -46 8 -122 21 -170 30 -49 8 -122 21 -163 29 -91 16 -226 40 -340 60 -47 9 -121 22 -165 30 -44 7 -136 23 -205 35 -197 33 -419 72 -710 125 -41 8 -115 21 -165 30 -49 8 -126 22 -170 30 -44 7 -136 23 -205 35 -156 26 -377 65 -540 95 -71 13 -148 26 -335 60 -149 26 -250 44 -375 65 -69 12 -162 28 -207 36 -46 8 -121 21 -168 29 -96 17 -224 40 -335 60 -41 8 -114 21 -163 29 -48 9 -124 22 -170 30 -45 8 -138 24 -207 36 -69 12 -162 28 -207 36 -132 23 -246 43 -340 60 -49 8 -122 21 -163 29 -153 28 -247 44 -333 59 -48 9 -126 23 -175 31 -48 9 -135 23 -194 32 -102 15 -108 18 -108 40 0 16 -6 23 -20 23 -11 0 -20 -4 -20 -9 z "/>
    </g>
  </g>
  <g id="l3Z8b0XMSloX2souYKyVDRF" fill="rgb(255,216,92)" style="transform: none;">
    <g>
      <path id="p12Dc2NGbi" d="M 2655 17268 c -253 -527 -459 -1052 -621 -1584 -64 -212 -224 -829 -224 -865 0 -13 10 -20 33 -23 31 -5 68 -11 242 -42 159 -27 362 -63 505 -89 41 -8 116 -21 165 -30 50 -8 126 -22 170 -30 44 -7 136 -23 205 -35 69 -12 161 -28 205 -35 44 -8 121 -22 170 -30 50 -9 124 -22 165 -30 71 -13 148 -26 335 -60 149 -26 250 -44 375 -65 69 -12 161 -28 205 -35 44 -8 119 -21 167 -30 95 -16 218 -38 338 -60 41 -8 114 -21 163 -29 48 -9 124 -22 170 -30 45 -8 138 -24 207 -36 69 -12 162 -28 207 -36 46 -8 121 -21 168 -29 96 -17 224 -40 335 -60 41 -8 114 -21 163 -29 94 -17 208 -37 340 -60 45 -8 138 -24 207 -36 69 -12 162 -28 207 -36 46 -8 121 -21 168 -29 96 -17 224 -40 335 -60 41 -8 114 -21 163 -29 48 -9 124 -22 170 -30 45 -8 138 -24 207 -36 69 -12 162 -28 207 -36 46 -8 121 -21 168 -29 96 -17 224 -40 335 -60 41 -8 116 -21 165 -30 50 -8 126 -22 170 -30 44 -7 136 -23 205 -35 69 -12 161 -28 205 -35 44 -8 121 -22 170 -30 87 -15 175 -31 335 -60 41 -8 116 -21 165 -30 50 -8 126 -22 170 -30 44 -7 136 -23 205 -35 69 -12 161 -28 205 -35 44 -8 118 -21 165 -30 114 -20 249 -44 340 -60 41 -8 116 -21 165 -30 50 -8 126 -22 170 -30 44 -7 136 -23 205 -35 125 -21 226 -39 375 -65 44 -8 118 -21 165 -30 114 -20 249 -44 340 -60 163 -30 384 -69 540 -95 69 -12 161 -28 205 -35 44 -8 121 -22 170 -30 87 -15 175 -31 335 -60 163 -30 384 -69 540 -95 69 -12 161 -28 205 -35 44 -8 118 -21 165 -30 114 -20 249 -44 340 -60 163 -30 384 -69 540 -95 125 -21 226 -39 375 -65 187 -34 264 -47 335 -60 41 -8 116 -21 165 -30 50 -8 126 -22 170 -30 44 -7 136 -23 205 -35 197 -33 419 -72 710 -125 72 -13 148 -27 330 -59 199 -35 262 -46 380 -66 69 -12 161 -28 205 -35 44 -8 121 -22 170 -30 87 -15 175 -31 335 -60 163 -30 384 -69 540 -95 69 -12 161 -28 205 -35 44 -8 121 -22 170 -30 87 -15 175 -31 335 -60 163 -30 384 -69 540 -95 125 -21 226 -39 375 -65 187 -34 264 -47 335 -60 41 -8 116 -21 165 -30 50 -8 126 -22 170 -30 44 -7 136 -23 205 -35 187 -32 464 -80 710 -125 141 -26 229 -39 234 -34 6 6 42 321 60 529 53 603 53 1315 1 1898 -8 89 -15 166 -15 171 0 5 -8 12 -17 14 -16 4 -16 5 1 6 12 1 16 6 12 17 -3 9 -6 22 -6 30 0 8 -7 14 -15 14 -8 0 -15 9 -15 20 0 11 5 20 10 20 6 0 10 11 10 24 0 19 -6 25 -32 29 -18 3 -73 13 -123 21 -209 38 -256 46 -375 66 -125 21 -226 39 -375 65 -44 8 -118 21 -165 30 -114 20 -249 44 -340 60 -41 8 -115 21 -165 30 -49 8 -126 22 -170 30 -44 7 -136 23 -205 35 -197 33 -419 72 -710 125 -41 8 -114 21 -163 29 -48 9 -124 22 -170 30 -45 8 -138 24 -207 36 -69 12 -162 28 -207 36 -46 8 -121 21 -168 29 -96 17 -224 40 -335 60 -41 8 -114 21 -163 29 -48 9 -124 22 -170 30 -45 8 -138 24 -207 36 -69 12 -162 28 -207 36 -46 8 -121 21 -168 29 -96 17 -224 40 -335 60 -41 8 -114 21 -163 29 -48 9 -124 22 -170 30 -45 8 -138 24 -207 36 -69 12 -162 28 -207 36 -46 8 -121 21 -168 29 -96 17 -224 40 -335 60 -41 8 -114 21 -163 29 -94 17 -208 37 -340 60 -45 8 -138 24 -207 36 -69 12 -162 28 -207 36 -46 8 -121 21 -168 29 -96 17 -224 40 -335 60 -41 8 -114 21 -163 29 -48 9 -124 22 -170 30 -45 8 -138 24 -207 36 -69 12 -162 28 -207 36 -46 8 -121 21 -168 29 -96 17 -224 40 -335 60 -41 8 -114 21 -163 29 -48 9 -124 22 -170 30 -45 8 -138 24 -207 36 -69 12 -162 28 -207 36 -46 8 -121 21 -168 29 -96 17 -224 40 -335 60 -41 8 -114 21 -163 29 -48 9 -124 22 -170 30 -45 8 -138 24 -207 36 -69 12 -162 28 -207 36 -46 8 -121 21 -168 29 -96 17 -224 40 -335 60 -41 8 -114 21 -163 29 -48 9 -124 22 -170 30 -45 8 -138 24 -207 36 -69 12 -162 28 -207 36 -46 8 -121 21 -168 29 -47 9 -123 22 -170 30 -96 17 -224 40 -335 60 -41 8 -114 21 -163 29 -48 9 -124 22 -170 30 -45 8 -138 24 -207 36 -69 12 -162 28 -207 36 -46 8 -121 21 -168 29 -96 17 -224 40 -335 60 -163 30 -384 69 -540 95 -69 12 -161 28 -205 35 -44 8 -118 21 -165 30 -114 20 -249 44 -340 60 -163 30 -384 69 -540 95 -125 21 -226 39 -375 65 -187 34 -264 47 -335 60 -41 8 -115 21 -165 30 -49 8 -126 22 -170 30 -44 7 -136 23 -205 35 -69 12 -162 28 -207 36 -46 8 -121 21 -168 29 -96 17 -224 40 -335 60 -41 8 -114 21 -163 29 -48 9 -124 22 -170 30 -169 30 -255 45 -377 66 -69 12 -162 28 -207 36 -46 8 -122 21 -170 30 -49 8 -122 21 -163 29 -111 20 -239 43 -335 60 -47 8 -122 21 -168 29 -45 8 -138 24 -207 36 -69 12 -161 28 -205 35 -162 29 -262 46 -344 60 -46 7 -88 18 -94 24 -6 6 -14 11 -17 11 -4 0 -42 -73 -85 -162 z "/>
      <path id="pO5khm66H" d="M 1570 12068 c 1 -69 24 -408 40 -583 39 -418 82 -707 182 -1226 l 11 -56 106 -16 c 58 -9 147 -23 196 -32 204 -36 355 -63 505 -90 72 -13 148 -27 330 -59 199 -35 262 -46 380 -66 197 -33 419 -72 710 -125 163 -30 384 -69 540 -95 69 -12 161 -28 205 -35 44 -8 118 -21 165 -30 114 -20 249 -44 340 -60 41 -8 114 -21 163 -29 48 -9 124 -22 170 -30 45 -8 138 -24 207 -36 69 -12 162 -28 207 -36 46 -8 122 -21 170 -30 49 -8 122 -21 163 -29 111 -20 239 -43 335 -60 47 -8 122 -21 168 -29 45 -8 138 -24 207 -36 69 -12 162 -28 207 -36 46 -8 121 -21 168 -29 96 -17 224 -40 335 -60 41 -8 114 -21 163 -29 48 -9 124 -22 170 -30 45 -8 138 -24 207 -36 69 -12 162 -28 207 -36 46 -8 121 -21 168 -29 47 -9 123 -22 170 -30 96 -17 224 -40 335 -60 163 -30 384 -69 540 -95 69 -12 161 -28 205 -35 44 -8 118 -21 165 -30 114 -20 249 -44 340 -60 163 -30 384 -69 540 -95 197 -33 419 -72 710 -125 163 -30 384 -69 540 -95 69 -12 161 -28 205 -35 44 -8 118 -21 165 -30 114 -20 249 -44 340 -60 41 -8 116 -21 165 -30 50 -8 126 -22 170 -30 44 -7 136 -23 205 -35 197 -33 419 -72 710 -125 85 -16 202 -37 335 -60 50 -8 126 -22 170 -30 44 -7 136 -23 205 -35 197 -33 419 -72 710 -125 163 -30 384 -69 540 -95 125 -21 226 -39 375 -65 187 -34 264 -47 335 -60 163 -30 384 -69 540 -95 69 -12 161 -28 205 -35 44 -8 121 -22 170 -30 87 -15 175 -31 335 -60 163 -30 384 -69 540 -95 69 -12 161 -28 205 -35 44 -8 121 -22 170 -30 87 -15 175 -31 335 -60 41 -8 116 -21 165 -30 50 -8 126 -22 170 -30 44 -7 136 -23 205 -35 125 -21 226 -39 375 -65 44 -8 121 -22 170 -30 87 -15 175 -31 335 -60 163 -30 384 -69 540 -95 69 -12 163 -28 210 -36 47 -9 108 -19 135 -24 28 -5 60 -12 72 -15 16 -5 24 -1 33 14 6 12 8 26 5 31 -3 6 0 10 7 10 14 0 144 214 293 480 191 343 526 1055 529 1124 1 29 0 30 -74 42 -74 11 -194 32 -340 59 -71 13 -153 27 -335 60 -149 26 -250 44 -375 65 -125 21 -226 39 -375 65 -187 34 -264 47 -335 60 -41 8 -115 21 -165 30 -49 8 -126 22 -170 30 -44 7 -136 23 -205 35 -197 33 -419 72 -710 125 -41 8 -114 21 -163 29 -94 17 -208 37 -340 60 -45 8 -138 24 -207 36 -69 12 -162 28 -207 36 -46 8 -121 21 -168 29 -96 17 -224 40 -335 60 -41 8 -114 21 -163 29 -48 9 -124 22 -170 30 -45 8 -138 24 -207 36 -69 12 -162 28 -207 36 -46 8 -121 21 -168 29 -96 17 -224 40 -335 60 -163 30 -384 69 -540 95 -69 12 -162 28 -207 36 -46 8 -121 21 -168 29 -96 17 -224 40 -335 60 -41 8 -114 21 -163 29 -48 9 -124 22 -170 30 -45 8 -138 24 -207 36 -69 12 -162 28 -207 36 -46 8 -121 21 -168 29 -96 17 -224 40 -335 60 -41 8 -114 21 -163 29 -48 9 -124 22 -170 30 -45 8 -138 24 -207 36 -69 12 -162 28 -207 36 -46 8 -121 21 -168 29 -47 9 -123 22 -170 30 -96 17 -224 40 -335 60 -41 8 -114 21 -163 29 -48 9 -124 22 -170 30 -45 8 -138 24 -207 36 -69 12 -162 28 -207 36 -46 8 -121 21 -168 29 -96 17 -224 40 -335 60 -41 8 -114 21 -163 29 -48 9 -124 22 -170 30 -45 8 -138 24 -207 36 -69 12 -162 28 -207 36 -46 8 -121 21 -168 29 -96 17 -224 40 -335 60 -41 8 -114 21 -163 29 -48 9 -124 22 -170 30 -45 8 -138 24 -207 36 -69 12 -162 28 -207 36 -46 8 -121 21 -168 29 -96 17 -224 40 -335 60 -41 8 -114 21 -163 29 -48 9 -124 22 -170 30 -45 8 -138 24 -207 36 -69 12 -162 28 -207 36 -46 8 -121 21 -168 29 -96 17 -224 40 -335 60 -72 13 -148 27 -330 59 -199 35 -262 46 -380 66 -197 33 -419 72 -710 125 -163 30 -384 69 -540 95 -197 33 -419 72 -710 125 -163 30 -384 69 -540 95 -69 12 -162 28 -207 36 -46 8 -122 21 -170 30 -49 8 -122 21 -163 29 -120 22 -243 44 -338 60 -48 9 -123 22 -167 30 -44 7 -136 23 -205 35 -69 12 -162 28 -207 36 -46 8 -122 21 -170 30 -49 8 -122 21 -163 29 -111 20 -239 43 -335 60 -47 8 -122 21 -168 29 -45 8 -138 24 -207 36 -122 21 -208 36 -377 66 -129 22 -257 43 -270 44 -7 0 -13 -6 -13 -12 z "/>
    </g>
  </g>
  <g id="lOPEzChsAW85S40IS5czj0" fill="rgb(255,224,103)" style="transform: none;">
    <g>
      <path id="p19lIX2fqi" d="M 1767 14607 c -108 -567 -167 -1051 -187 -1557 -6 -140 -15 -329 -20 -420 -7 -109 -7 -195 0 -255 5 -49 10 -151 11 -225 1 -74 3 -128 5 -120 5 17 24 15 244 -24 181 -32 259 -46 380 -66 156 -26 377 -65 540 -95 71 -13 148 -26 335 -60 149 -26 250 -44 375 -65 69 -12 162 -28 207 -36 46 -8 121 -21 168 -29 96 -17 224 -40 335 -60 41 -8 114 -21 163 -29 48 -9 124 -22 170 -30 45 -8 138 -24 207 -36 69 -12 162 -28 207 -36 46 -8 121 -21 168 -29 96 -17 224 -40 335 -60 41 -8 114 -21 163 -29 48 -9 124 -22 170 -30 45 -8 138 -24 207 -36 69 -12 162 -28 207 -36 46 -8 121 -21 168 -29 96 -17 224 -40 335 -60 41 -8 114 -21 163 -29 48 -9 124 -22 170 -30 45 -8 138 -24 207 -36 69 -12 162 -28 207 -36 46 -8 121 -21 168 -29 47 -9 123 -22 170 -30 96 -17 224 -40 335 -60 163 -30 384 -69 540 -95 69 -12 161 -28 205 -35 44 -8 118 -21 165 -30 114 -20 249 -44 340 -60 163 -30 384 -69 540 -95 125 -21 226 -39 375 -65 187 -34 264 -47 335 -60 163 -30 384 -69 540 -95 69 -12 161 -28 205 -35 44 -8 121 -22 170 -30 87 -15 175 -31 335 -60 163 -30 384 -69 540 -95 69 -12 161 -28 205 -35 44 -8 121 -22 170 -30 87 -15 175 -31 335 -60 72 -13 148 -27 330 -59 199 -35 262 -46 380 -66 69 -12 161 -28 205 -35 44 -8 118 -21 165 -30 114 -20 249 -44 340 -60 163 -30 384 -69 540 -95 125 -21 226 -39 375 -65 187 -34 264 -47 335 -60 41 -8 116 -21 165 -30 50 -8 126 -22 170 -30 44 -7 136 -23 205 -35 69 -12 161 -28 205 -35 44 -8 118 -21 165 -30 114 -20 249 -44 340 -60 163 -30 384 -69 540 -95 69 -12 161 -28 205 -35 44 -8 118 -21 165 -30 114 -20 249 -44 340 -60 163 -30 384 -69 540 -95 69 -12 161 -28 205 -35 118 -21 239 -43 340 -60 87 -15 175 -31 335 -60 41 -8 116 -21 165 -30 50 -8 126 -22 170 -30 44 -7 136 -23 205 -35 69 -12 161 -28 205 -35 44 -8 118 -21 165 -30 114 -20 249 -44 340 -60 163 -30 384 -69 540 -95 69 -12 161 -28 205 -35 44 -8 118 -21 165 -30 110 -19 246 -43 340 -60 151 -28 267 -48 338 -59 43 -6 77 -17 83 -26 8 -13 11 -13 23 3 16 21 143 349 220 570 167 477 325 1077 420 1592 36 196 89 536 84 540 -3 3 -83 18 -218 42 -47 8 -119 21 -160 28 -163 30 -384 69 -540 95 -197 33 -419 72 -710 125 -41 8 -115 21 -165 30 -49 8 -126 22 -170 30 -44 7 -136 23 -205 35 -197 33 -419 72 -710 125 -41 8 -115 21 -165 30 -49 8 -126 22 -170 30 -44 7 -136 23 -205 35 -184 31 -437 76 -710 125 -41 8 -114 21 -163 29 -48 9 -124 22 -170 30 -45 8 -138 24 -207 36 -69 12 -162 28 -207 36 -46 8 -121 21 -168 29 -47 9 -123 22 -170 30 -96 17 -224 40 -335 60 -41 8 -114 21 -163 29 -48 9 -124 22 -170 30 -45 8 -138 24 -207 36 -69 12 -162 28 -207 36 -216 38 -390 69 -503 89 -41 8 -114 21 -163 29 -48 9 -124 22 -170 30 -45 8 -138 24 -207 36 -69 12 -162 28 -207 36 -46 8 -121 21 -168 29 -96 17 -224 40 -335 60 -41 8 -114 21 -163 29 -48 9 -124 22 -170 30 -45 8 -138 24 -207 36 -69 12 -162 28 -207 36 -46 8 -121 21 -168 29 -96 17 -224 40 -335 60 -41 8 -114 21 -163 29 -48 9 -124 22 -170 30 -45 8 -138 24 -207 36 -69 12 -162 28 -207 36 -46 8 -121 21 -168 29 -96 17 -224 40 -335 60 -41 8 -114 21 -163 29 -94 17 -208 37 -340 60 -45 8 -138 24 -207 36 -69 12 -162 28 -207 36 -46 8 -121 21 -168 29 -96 17 -224 40 -335 60 -41 8 -114 21 -163 29 -48 9 -124 22 -170 30 -45 8 -138 24 -207 36 -69 12 -162 28 -207 36 -46 8 -121 21 -168 29 -96 17 -224 40 -335 60 -41 8 -114 21 -163 29 -48 9 -124 22 -170 30 -45 8 -138 24 -207 36 -69 12 -162 28 -207 36 -46 8 -121 21 -168 29 -96 17 -224 40 -335 60 -41 8 -114 21 -163 29 -48 9 -124 22 -170 30 -45 8 -138 24 -207 36 -197 33 -419 72 -710 125 -41 8 -115 21 -165 30 -49 8 -126 22 -170 30 -44 7 -136 23 -205 35 -69 12 -161 28 -205 35 -118 21 -239 43 -340 60 -87 15 -175 31 -335 60 -163 30 -384 69 -540 95 -197 33 -419 72 -710 125 -41 8 -114 21 -163 29 -48 9 -124 22 -170 30 -45 8 -138 24 -207 36 -69 12 -162 28 -207 36 -216 38 -390 69 -503 89 -41 8 -114 21 -163 29 -48 9 -124 22 -170 30 -45 8 -138 24 -207 36 -69 12 -162 28 -207 36 -46 8 -122 21 -170 30 -49 8 -122 21 -163 29 -120 22 -243 44 -338 60 -48 9 -125 22 -172 30 -47 9 -130 23 -185 31 -55 9 -102 20 -106 25 -3 5 -26 -100 -52 -234 z "/>
      <path id="p3BhBUi8H" d="M 23330 11170 c 0 -5 7 -10 15 -10 8 0 15 5 15 10 0 6 -7 10 -15 10 -8 0 -15 -4 -15 -10 z "/>
      <path id="p8qRqieGl" d="M 23320 11089 c 0 -24 23 -21 28 4 2 10 -3 17 -12 17 -10 0 -16 -9 -16 -21 z "/>
    </g>
  </g>
    <g fill="#ffffff" style="transform: none;">
    <g style="transform: none;">
      <path d="M3372 18310 c2 -5 2055 -3216 4563 -7134 3403 -5317 4563 -7122 4571 -7113 6 7 2055 3207 4554 7112 2499 3905 4550 7110 4558 7123 l14 22 -908 0 -909 0 -24 -62 c-50 -133 -178 -412 -282 -618 -706 -1398 -1837 -2572 -3213 -3334 -1470 -815 -3163 -1135 -4846 -916 -2087 272 -3989 1386 -5265 3085 -162 215 -383 549 -514 775 -170 292 -395 754 -492 1008 l-24 62 -893 0 c-574 0 -892 -3 -890 -10z m13401 -5219 c-10 -16 -974 -1523 -2143 -3350 -1169 -1826 -2129 -3319 -2134 -3318 -7 2 -4276 6665 -4276 6674 0 2 72 -33 160 -77 1097 -549 2227 -857 3500 -952 216 -16 994 -16 1210 0 874 65 1600 213 2400 488 363 124 813 316 1135 483 83 43 154 79 158 80 5 0 1 -12 -10 -28z"/>
      <path d="M16665 18263 c-16 -9 -35 -23 -41 -32 -7 -8 -40 -29 -75 -46 l-64 -30 4 -65 c2 -53 8 -69 27 -87 31 -28 33 -73 4 -73 -30 0 -70 29 -70 51 0 11 -4 19 -10 19 -5 0 -10 -11 -10 -25 0 -14 -4 -25 -10 -25 -5 0 -10 -9 -10 -19 0 -10 -7 -21 -15 -25 -10 -3 -13 -14 -9 -33 7 -35 -11 -83 -31 -83 -8 0 -23 -4 -33 -9 -94 -49 -128 -61 -172 -61 -30 0 -52 -5 -60 -15 -9 -11 -32 -15 -80 -15 -41 0 -79 -6 -96 -15 -18 -10 -53 -15 -94 -14 -59 1 -130 -20 -130 -38 0 -3 19 -22 43 -43 l42 -38 1 -107 c1 -63 6 -111 13 -118 6 -6 11 -30 11 -52 0 -29 6 -47 20 -60 19 -17 21 -17 39 -1 16 15 42 17 176 17 156 0 156 0 176 -25 23 -29 50 -33 69 -11 7 8 19 15 27 15 7 0 16 -7 19 -15 4 -9 19 -15 40 -15 20 0 37 -6 42 -16 8 -15 13 -12 38 17 59 68 74 80 97 77 13 -2 23 -11 25 -24 3 -18 12 -22 65 -28 l62 -7 36 40 c20 22 48 43 62 46 33 9 34 15 2 45 -30 29 -32 68 -5 103 11 14 20 32 20 41 0 9 5 16 10 16 6 0 27 18 49 40 29 30 47 40 70 40 26 0 31 -4 31 -24 0 -14 10 -33 23 -43 13 -10 27 -31 31 -46 7 -31 26 -36 26 -7 0 11 5 20 10 20 6 0 10 9 10 20 0 11 7 23 15 26 8 4 15 12 15 20 0 8 5 23 12 33 9 14 8 23 -5 42 -11 15 -17 44 -17 82 0 48 4 62 25 83 19 19 25 35 25 69 0 25 5 45 10 45 6 0 10 15 10 34 0 18 7 39 15 46 24 20 -5 144 -40 170 -32 24 -82 49 -87 44 -3 -2 -11 2 -18 11 -7 8 -20 15 -29 15 -9 0 -25 7 -35 15 -11 8 -30 15 -42 15 -13 0 -25 4 -29 9 -24 40 -172 55 -230 24z"/>
      <path d="M9116 18220 c-24 -22 -50 -40 -59 -40 -9 0 -17 -10 -19 -22 -2 -14 -12 -24 -28 -28 -19 -5 -24 -12 -22 -29 2 -13 -5 -33 -16 -45 -10 -11 -27 -36 -36 -55 -15 -32 -15 -36 0 -52 23 -26 11 -69 -19 -69 -26 0 -52 -36 -48 -66 1 -12 -5 -28 -13 -37 -9 -9 -16 -29 -16 -45 0 -17 -5 -32 -11 -34 -8 -3 -11 -41 -10 -117 2 -80 -2 -117 -11 -128 -9 -11 -12 -42 -10 -103 3 -69 1 -90 -12 -103 -12 -12 -16 -37 -16 -110 l0 -95 -34 -21 c-18 -12 -42 -21 -52 -21 -11 0 -28 -7 -38 -15 -11 -8 -36 -15 -55 -15 -31 0 -46 -10 -104 -67 -37 -38 -71 -73 -75 -79 -4 -7 -24 -19 -45 -27 -43 -18 -58 -45 -34 -59 14 -7 17 -25 17 -93 0 -47 4 -85 8 -85 5 0 16 -18 26 -41 10 -22 24 -43 32 -46 8 -3 14 -13 14 -24 0 -10 7 -22 16 -27 13 -7 16 -23 12 -85 l-3 -76 35 -3 c27 -2 36 -8 38 -24 2 -12 16 -33 33 -48 16 -14 29 -32 29 -40 0 -7 6 -19 14 -26 8 -6 16 -24 18 -38 2 -21 9 -28 32 -30 16 -2 33 1 39 7 16 16 42 13 82 -9 20 -11 46 -20 59 -20 13 0 29 -7 36 -15 7 -8 20 -15 30 -15 10 0 23 -7 30 -15 7 -8 19 -15 28 -15 8 0 21 -8 28 -17 13 -17 15 -17 28 0 7 9 20 17 28 17 9 0 22 7 29 16 11 14 35 16 163 13 144 -4 151 -3 154 16 2 11 13 27 24 36 19 15 25 32 27 82 1 13 10 17 40 17 22 0 41 -5 43 -12 6 -17 98 -19 105 -2 7 19 69 18 77 -1 3 -8 15 -15 26 -15 11 0 20 -4 20 -10 0 -13 103 -13 116 0 6 6 22 13 37 15 14 3 40 19 57 37 28 28 31 35 20 51 -33 53 -50 89 -50 106 0 9 -21 36 -46 59 -46 41 -46 41 -42 100 2 39 -2 65 -10 75 -9 10 -12 36 -11 68 2 34 -1 54 -9 57 -7 2 -12 18 -12 36 0 26 -12 43 -63 94 -34 34 -68 62 -75 62 -7 0 -38 25 -70 55 -31 30 -60 55 -64 55 -14 0 -8 48 10 80 16 30 16 31 -3 46 -15 11 -20 27 -20 59 0 25 -3 45 -7 45 -5 0 -8 -5 -8 -11 0 -6 -14 -9 -32 -7 -28 2 -33 7 -33 28 0 20 6 26 28 28 33 4 34 9 2 34 -14 11 -25 27 -25 37 0 22 -31 51 -53 51 -9 0 -17 5 -17 10 0 6 -18 10 -39 10 -22 0 -43 5 -46 11 -10 16 4 59 19 59 7 0 18 6 24 13 9 10 -4 28 -53 77 -40 40 -65 73 -65 86 0 14 -14 31 -40 48 -22 14 -40 31 -40 37 0 20 21 49 35 49 21 0 30 41 11 52 -9 5 -16 20 -16 32 0 13 -7 26 -15 30 -18 7 -20 57 -3 74 7 7 24 12 39 12 33 0 46 28 29 61 -12 21 -10 90 4 121 5 12 1 18 -14 23 -19 6 -21 12 -17 40 8 50 -16 52 -67 5z"/>
      <path d="M9253 18221 c0 -28 1 -28 41 -19 23 5 45 10 51 12 13 3 -54 36 -75 36 -12 0 -17 -8 -17 -29z"/>
      <path d="M17612 17613 c-8 -14 -9 -24 -2 -28 12 -7 24 18 18 37 -3 8 -9 5 -16 -9z"/>
      <path d="M17567 17524 c-4 -4 -7 -14 -7 -23 0 -11 3 -12 11 -4 6 6 10 16 7 23 -2 6 -7 8 -11 4z"/>
      <path d="M17316 17493 c-15 -15 -36 -45 -46 -68 -11 -22 -41 -64 -69 -93 -49 -53 -50 -54 -101 -51 -55 3 -80 -13 -80 -53 0 -12 -8 -18 -24 -18 -13 0 -29 -7 -36 -15 -10 -13 -9 -19 5 -35 18 -20 18 -21 -4 -50 -12 -17 -19 -35 -16 -40 3 -5 -1 -12 -8 -17 -8 -4 -18 -18 -21 -30 -7 -22 -5 -23 46 -23 l53 0 89 89 c49 49 86 93 82 99 -3 5 10 24 28 40 19 17 43 48 54 70 17 36 18 42 4 56 -13 12 -13 19 -2 45 7 17 16 31 21 31 5 0 15 12 21 28 7 15 18 35 26 45 23 27 8 20 -22 -10z"/>
      <path d="M17396 17381 c-39 -19 -41 -20 -33 -27 4 -4 12 -2 20 4 7 6 35 12 62 14 28 2 49 8 48 13 -4 15 -62 12 -97 -4z"/>
      <path d="M16832 16967 c-22 -23 -32 -43 -32 -64 0 -22 -7 -37 -22 -47 l-22 -16 21 0 c32 0 53 27 53 67 0 26 8 42 31 64 18 17 25 29 17 29 -8 0 -28 -15 -46 -33z"/>
      <path d="M16433 16958 c16 -10 67 -10 67 0 0 4 -18 7 -39 7 -22 0 -34 -3 -28 -7z"/>
      <path d="M12045 16910 c-3 -6 -4 -18 -1 -28 4 -10 -1 -27 -9 -38 -8 -10 -15 -31 -15 -46 0 -15 -4 -30 -10 -33 -5 -3 -10 -19 -10 -35 0 -16 -7 -35 -15 -44 -8 -8 -15 -29 -15 -46 0 -18 -6 -33 -15 -36 -9 -4 -15 -19 -15 -40 0 -22 -6 -37 -16 -41 -10 -4 -13 -14 -9 -32 3 -14 -1 -39 -10 -55 -20 -38 -20 -164 0 -202 11 -22 15 -66 15 -181 0 -161 -8 -203 -38 -203 -10 0 -29 -11 -42 -25 -13 -14 -32 -25 -42 -25 -11 0 -18 -7 -18 -20 0 -10 -8 -23 -17 -29 -17 -9 -16 -12 5 -40 12 -17 22 -38 22 -48 1 -10 7 -29 15 -43 21 -37 19 -45 -27 -89 -35 -33 -50 -41 -81 -41 -21 0 -49 -7 -62 -16 -23 -15 -27 -15 -50 0 -16 11 -47 16 -97 16 -41 1 -83 6 -97 14 -13 7 -32 11 -41 9 -10 -3 -31 2 -48 11 -17 9 -46 16 -65 16 -22 0 -37 6 -41 15 -4 12 -25 15 -95 15 -81 0 -91 -2 -108 -23 -10 -12 -30 -27 -44 -34 -15 -6 -56 -39 -93 -73 -59 -56 -66 -66 -66 -101 0 -22 5 -39 10 -39 6 0 10 -8 10 -19 0 -10 7 -25 16 -32 13 -11 15 -25 11 -69 -5 -44 -3 -62 11 -81 30 -43 112 -119 128 -119 9 0 25 -11 36 -25 11 -14 28 -25 38 -25 11 0 36 -18 56 -40 21 -22 44 -40 51 -40 8 0 35 -21 61 -47 50 -51 103 -83 138 -83 12 0 27 -7 34 -15 9 -11 34 -15 97 -15 61 0 91 -4 109 -16 20 -13 40 -16 98 -11 53 4 81 1 101 -9 15 -8 56 -14 91 -14 64 0 64 0 58 25 -10 40 11 55 76 55 38 0 60 4 62 13 3 8 35 13 99 16 58 2 101 8 114 17 30 21 467 20 485 -1 7 -8 24 -15 37 -15 14 0 37 -6 51 -14 15 -8 35 -17 45 -20 15 -5 18 -15 15 -58 l-3 -53 -135 -5 c-158 -6 -207 -21 -212 -67 -2 -22 -9 -29 -31 -31 -16 -2 -34 1 -40 6 -7 5 -25 12 -41 16 -25 6 -28 10 -22 36 8 40 -10 47 -43 16 -15 -14 -34 -26 -42 -26 -8 0 -33 -18 -54 -40 -21 -22 -47 -40 -56 -40 -9 0 -19 -7 -23 -15 -3 -8 -14 -15 -24 -15 -11 0 -25 -7 -32 -15 -7 -8 -25 -15 -41 -15 -15 0 -34 7 -43 15 -18 18 -33 19 -38 3 -7 -21 -206 -21 -238 -1 -14 9 -35 17 -48 18 -13 0 -28 8 -33 17 -5 10 -16 15 -24 12 -8 -4 -18 1 -21 10 -3 9 -14 16 -24 16 -20 0 -83 30 -88 43 -2 4 -10 7 -17 7 -8 0 -35 11 -61 25 -26 14 -57 25 -69 25 -13 0 -28 7 -35 15 -7 8 -26 15 -42 15 -16 0 -36 7 -44 15 -17 16 -54 21 -54 6 0 -5 7 -14 15 -21 8 -7 15 -20 15 -29 0 -22 51 -71 72 -71 9 0 20 -4 23 -10 3 -5 39 -10 80 -10 64 0 78 -3 102 -24 24 -21 26 -28 16 -44 -10 -16 -7 -20 21 -30 18 -7 47 -12 65 -12 24 0 34 -5 38 -20 4 -15 11 -18 32 -14 18 4 32 0 40 -10 8 -9 26 -16 42 -16 15 0 30 -4 34 -10 3 -5 33 -21 65 -36 33 -15 60 -31 60 -36 0 -5 28 -8 63 -6 l62 3 3 -32 c2 -23 -3 -35 -20 -47 -25 -18 -103 -22 -113 -6 -8 13 -42 13 -50 1 -8 -14 53 -41 91 -41 18 0 36 -4 39 -10 3 -5 19 -10 34 -10 15 0 36 -7 47 -15 10 -8 31 -15 46 -15 15 0 30 -4 33 -10 3 -5 24 -10 45 -10 21 0 45 -7 54 -15 21 -22 408 -22 426 0 8 10 38 15 103 17 84 3 92 5 92 23 0 24 50 34 68 13 19 -22 87 -42 100 -29 6 6 34 11 63 11 34 0 56 5 64 15 18 22 129 21 145 -2 12 -16 14 -16 29 0 21 21 40 22 56 2 7 -8 23 -15 35 -15 12 0 28 7 35 15 9 11 33 15 87 15 56 0 75 -4 79 -15 4 -10 20 -15 44 -15 21 0 43 7 50 15 7 9 30 15 54 15 33 1 37 3 24 11 -22 13 -23 55 -2 63 9 3 37 6 64 6 50 0 75 -16 65 -42 -7 -19 20 -29 95 -37 50 -5 55 -8 53 -28 -3 -24 20 -32 32 -13 3 6 14 10 24 10 10 0 39 11 65 25 51 27 85 32 104 13 9 -9 12 -9 12 0 0 7 8 12 19 12 10 0 24 7 31 15 7 8 25 15 40 15 15 0 33 7 40 15 7 8 25 15 41 15 15 0 31 5 34 10 3 6 15 10 27 10 11 0 32 6 46 14 15 8 47 19 72 26 25 7 60 18 78 26 18 8 41 14 52 14 10 0 22 5 25 10 3 6 19 10 34 10 16 0 34 7 41 15 7 8 25 15 40 15 15 0 33 7 40 15 7 8 28 15 46 15 19 0 34 5 34 10 0 6 11 10 25 10 13 0 39 6 57 14 18 8 53 19 78 26 25 6 67 22 94 35 53 25 76 23 76 -6 0 -10 4 -19 9 -19 5 0 8 15 7 33 -1 28 2 32 27 35 17 2 37 -4 48 -14 18 -16 19 -16 19 3 0 28 25 46 56 40 16 -3 27 0 31 9 7 20 43 17 59 -3 11 -16 15 -13 33 30 18 41 24 47 51 47 17 0 38 4 48 9 123 62 187 96 192 101 6 6 214 108 272 134 20 9 40 21 43 26 3 6 15 10 26 10 10 0 19 5 19 10 0 6 8 13 18 16 20 7 116 51 154 70 14 8 33 14 41 14 23 0 178 81 184 96 2 7 17 16 33 19 15 3 36 15 46 26 9 10 25 19 35 19 10 0 26 11 37 25 11 14 29 25 40 25 11 0 22 7 26 15 3 8 14 15 24 15 10 0 29 12 43 26 13 14 38 32 56 41 34 16 44 33 19 33 -8 0 -17 6 -20 13 -3 8 -8 7 -16 -5 -6 -10 -20 -18 -30 -18 -10 0 -22 -4 -25 -10 -3 -5 -14 -10 -24 -10 -10 0 -24 -7 -31 -16 -8 -9 -25 -14 -44 -12 -27 3 -31 7 -34 36 -3 28 4 39 52 83 52 47 70 79 46 79 -5 0 -10 -4 -10 -8 0 -5 -50 -60 -110 -122 -61 -63 -106 -116 -100 -118 5 -2 10 -19 10 -37 0 -35 -13 -45 -56 -45 -13 0 -34 -11 -46 -25 -23 -27 -57 -32 -88 -13 -16 11 -24 9 -47 -12 -32 -28 -68 -50 -83 -50 -6 0 -28 -11 -50 -25 -22 -14 -46 -25 -54 -25 -8 0 -19 -6 -23 -14 -9 -15 -151 -30 -171 -17 -8 5 -12 21 -10 41 3 29 8 34 43 45 22 6 52 19 67 29 15 10 35 15 46 12 12 -4 28 5 52 29 19 20 44 35 57 35 21 0 121 75 122 93 1 4 -8 7 -19 7 -26 0 -28 44 -2 59 16 10 16 12 -2 26 -13 10 -43 15 -88 15 l-68 0 0 36 c0 29 9 46 40 80 43 47 55 83 21 65 -17 -9 -49 -50 -61 -77 -8 -18 -89 -104 -98 -104 -18 0 -129 -65 -165 -97 -36 -32 -59 -39 -91 -27 -23 9 -22 73 2 80 31 10 123 58 129 68 4 5 1 12 -5 14 -29 9 -11 56 43 113 30 32 55 64 55 72 0 8 12 22 26 32 l27 17 -26 22 c-14 11 -29 30 -35 40 -8 17 -19 19 -63 17 -29 -1 -63 -9 -75 -18 -19 -12 -30 -13 -55 -4 -21 7 -37 7 -49 1 -10 -6 -30 -10 -44 -10 -14 0 -26 -4 -26 -10 0 -5 -16 -12 -35 -16 -19 -3 -38 -10 -41 -15 -3 -5 -29 -9 -59 -9 -68 0 -76 18 -40 85 14 27 25 58 25 71 0 12 7 29 15 38 8 8 15 22 15 31 0 8 7 18 15 21 8 4 15 14 15 24 0 11 5 22 10 25 14 9 13 48 -2 63 -7 7 -31 12 -55 12 -42 0 -43 0 -43 -35 0 -19 -4 -35 -9 -35 -5 0 -41 -32 -80 -71 -67 -68 -71 -70 -113 -67 -40 3 -43 5 -46 33 -1 17 -8 40 -14 53 -9 18 -9 28 1 44 7 11 9 23 6 26 -15 15 -29 -38 -26 -100 2 -54 0 -69 -13 -74 -12 -4 -14 -16 -10 -47 6 -52 -10 -84 -56 -108 -46 -25 -150 -129 -150 -151 0 -10 -4 -18 -10 -18 -5 0 -10 -7 -10 -15 0 -9 -10 -29 -22 -45 -22 -30 -22 -30 -125 -30 -87 0 -103 2 -103 16 0 12 -7 14 -30 9 -19 -4 -41 -1 -61 9 -18 9 -42 16 -54 16 -39 0 -132 122 -121 158 4 12 -5 29 -29 52 l-35 34 -35 -34 c-19 -19 -35 -41 -35 -50 0 -9 -16 -31 -35 -50 -19 -19 -35 -42 -35 -51 0 -9 -7 -19 -15 -23 -8 -3 -15 -15 -15 -26 0 -11 -4 -20 -10 -20 -5 0 -10 -8 -10 -17 0 -9 -7 -24 -16 -34 -8 -9 -17 -36 -18 -58 -3 -33 1 -44 16 -52 27 -15 20 -53 -11 -57 -15 -2 -28 3 -33 12 -15 27 -42 18 -88 -29 -24 -25 -52 -45 -62 -45 -10 0 -18 -4 -18 -10 0 -5 -8 -10 -19 -10 -10 0 -24 -7 -31 -15 -7 -8 -25 -15 -41 -15 -15 0 -31 -4 -34 -10 -3 -5 -17 -10 -31 -10 -13 0 -42 -11 -64 -25 -22 -14 -44 -25 -49 -25 -5 0 -14 -7 -21 -15 -7 -8 -27 -15 -45 -15 -19 0 -35 -3 -37 -7 -6 -14 -132 -73 -155 -73 -12 0 -25 -4 -28 -10 -3 -5 -14 -10 -24 -10 -10 0 -24 -7 -31 -15 -7 -8 -25 -15 -40 -15 -15 0 -33 -7 -40 -15 -7 -8 -21 -15 -31 -15 -11 0 -19 -4 -19 -9 0 -14 -42 -21 -62 -10 -10 5 -18 18 -18 29 0 18 145 170 163 170 4 0 19 7 32 16 25 16 82 16 132 -1 16 -5 27 0 45 20 13 15 38 34 57 42 l34 14 -34 35 c-18 19 -40 34 -50 34 -9 0 -22 7 -29 15 -7 8 -26 15 -42 15 -16 0 -31 6 -34 15 -4 9 -19 15 -39 15 -19 0 -37 5 -40 10 -3 6 -26 10 -49 10 -27 0 -48 6 -56 15 -8 10 -30 15 -64 15 -29 0 -56 4 -62 10 -5 5 -43 10 -84 12 -73 3 -75 4 -78 29 -3 22 3 30 29 43 36 18 164 22 174 6 6 -10 107 -14 117 -4 7 6 -19 61 -33 69 -5 4 -9 13 -9 21 0 18 -63 75 -102 91 -15 7 -28 17 -28 22 0 10 -18 21 -132 83 -28 15 -57 36 -65 48 -8 11 -22 20 -31 20 -19 1 -122 93 -122 110 0 6 -7 22 -16 35 -20 30 -17 176 4 183 8 2 12 26 12 68 0 52 -5 72 -25 104 -14 22 -31 40 -39 40 -8 0 -34 11 -57 25 -24 14 -54 25 -67 25 -13 0 -37 14 -54 31 -30 29 -30 32 -26 104 5 70 3 76 -21 99 -15 14 -41 26 -61 28 l-35 3 -3 62 c-3 56 -6 65 -33 85 -17 13 -49 39 -72 58 -23 19 -69 48 -102 63 -33 16 -73 35 -88 43 -16 8 -39 14 -52 14 -13 0 -27 5 -30 10 -8 13 -182 13 -190 0z m1175 -1645 c14 -17 7 -45 -13 -45 -18 0 -63 -49 -72 -80 -4 -14 -16 -31 -26 -38 -11 -7 -19 -21 -19 -30 0 -9 -18 -35 -40 -56 -22 -22 -42 -48 -46 -59 -3 -11 -21 -33 -40 -49 -19 -17 -34 -37 -34 -44 0 -23 -47 -65 -64 -58 -8 3 -25 -1 -38 -10 -40 -28 -68 -16 -68 30 0 8 18 34 40 58 22 24 40 48 40 55 0 6 25 35 55 63 30 28 55 56 55 63 0 18 168 185 186 185 8 0 17 7 20 15 8 19 48 19 64 0z m398 -609 c2 -16 -1 -39 -6 -50 -6 -12 -12 -28 -15 -37 -3 -9 -31 -29 -62 -44 -51 -26 -55 -30 -37 -38 41 -19 37 -63 -6 -74 -14 -3 -44 -1 -66 6 -23 7 -59 16 -81 19 -54 9 -57 36 -11 85 26 28 43 37 67 37 30 0 31 1 16 18 -10 10 -17 26 -17 34 0 17 41 48 63 48 8 0 20 7 27 15 10 12 28 15 69 13 54 -3 56 -4 59 -32z m-482 -140 c7 -31 -1 -46 -27 -46 -11 0 -28 -7 -37 -16 -11 -11 -27 -15 -54 -11 l-38 5 0 -39 c0 -37 -2 -39 -30 -39 -25 0 -30 4 -30 25 0 22 -4 25 -38 25 -21 0 -47 -7 -58 -15 -11 -8 -42 -14 -74 -15 -51 0 -60 3 -99 39 -28 25 -42 46 -39 57 3 17 16 19 155 22 118 2 154 6 163 17 9 11 36 15 106 15 91 0 94 -1 100 -24z m-736 -278 c16 -21 27 -26 48 -22 36 6 55 -8 55 -41 0 -29 -16 -45 -45 -45 -14 0 -16 -6 -12 -30 7 -35 -17 -51 -47 -32 -10 7 -34 12 -52 12 -41 0 -65 17 -86 61 -14 30 -22 35 -61 39 -41 5 -45 8 -48 33 -7 56 -2 58 117 55 105 -3 110 -4 131 -30z"/>
      <path d="M16380 16781 c0 -11 -4 -23 -10 -26 -5 -3 -10 -18 -9 -33 l0 -27 11 25 c5 14 14 33 19 42 12 23 11 38 -1 38 -5 0 -10 -9 -10 -19z"/>
      <path d="M16277 16742 c-11 -12 -17 -36 -17 -63 0 -39 5 -50 38 -82 30 -29 45 -37 72 -36 l35 2 -35 6 c-29 5 -36 11 -38 34 -3 25 -1 27 32 27 20 0 36 5 36 10 0 6 -9 10 -20 10 -11 0 -23 7 -26 15 -4 8 -16 15 -29 15 -27 0 -38 21 -29 56 7 29 3 30 -19 6z"/>
      <path d="M16620 16697 c0 -20 3 -37 8 -37 4 0 7 13 7 29 0 16 -3 33 -7 37 -5 4 -8 -9 -8 -29z"/>
      <path d="M15995 16710 c-3 -5 -13 -10 -22 -10 -8 0 -28 -11 -45 -25 -16 -14 -36 -25 -44 -25 -8 0 -14 -4 -14 -10 0 -5 -8 -10 -18 -10 -10 0 -29 -11 -41 -24 -12 -13 -40 -31 -61 -41 -22 -10 -37 -21 -35 -26 6 -9 97 38 108 57 4 8 17 14 27 14 10 0 22 5 25 10 3 6 17 10 31 10 33 0 100 43 107 69 5 22 -7 29 -18 11z"/>
      <path d="M13076 16608 c-20 -28 -20 -59 -1 -84 8 -10 15 -31 15 -46 0 -15 5 -30 10 -33 6 -3 10 -17 10 -30 0 -43 38 -92 93 -120 29 -15 72 -47 97 -71 46 -44 69 -55 71 -31 3 29 -3 53 -17 64 -21 16 -54 83 -54 110 0 13 -4 23 -9 23 -9 0 -31 47 -40 90 -4 14 -16 29 -29 35 -15 7 -22 18 -22 38 0 22 -7 31 -34 42 -19 8 -37 19 -41 25 -10 17 -33 11 -49 -12z"/>
      <path d="M16451 16609 c-13 -11 -21 -22 -17 -26 3 -3 14 1 24 10 10 10 26 17 36 17 9 0 14 5 11 10 -9 15 -27 12 -54 -11z"/>
      <path d="M16094 16579 c-10 -12 -39 -30 -64 -42 -51 -23 -100 -64 -100 -84 0 -7 -4 -21 -9 -31 -17 -34 -29 -82 -21 -82 5 0 20 5 34 11 20 9 29 9 41 -1 10 -9 40 -12 84 -11 51 2 71 -2 80 -13 8 -9 19 -16 26 -16 7 0 16 -7 19 -16 5 -13 14 -8 46 23 39 37 40 38 18 43 -29 7 -36 53 -14 95 15 28 14 31 -11 57 -14 15 -37 28 -52 30 -20 2 -27 9 -29 31 -4 32 -22 35 -48 6z"/>
      <path d="M15663 16476 c-13 -6 -23 -18 -23 -27 0 -8 -11 -26 -25 -39 -14 -13 -25 -31 -25 -41 0 -9 -7 -22 -15 -29 -8 -7 -15 -18 -15 -25 0 -20 -96 -209 -114 -224 -10 -8 -22 -24 -27 -35 -6 -12 35 26 89 83 67 71 104 102 114 98 12 -4 15 3 14 34 0 32 6 45 39 80 22 22 51 46 65 52 l25 11 -27 4 c-21 2 -28 9 -28 26 0 32 -19 45 -47 32z"/>
      <path d="M16520 16417 c0 -13 6 -31 13 -42 13 -17 15 -16 30 15 23 45 22 50 -13 50 -25 0 -30 -4 -30 -23z"/>
      <path d="M7665 16339 c0 -28 -6 -44 -18 -50 -9 -6 -17 -21 -17 -34 0 -20 -5 -25 -24 -25 -13 0 -29 -7 -36 -16 -31 -36 -79 -40 -81 -5 0 11 -3 9 -9 -6 -5 -13 -14 -23 -20 -23 -14 0 -3 -38 16 -61 8 -8 14 -26 14 -38 0 -14 7 -25 20 -28 12 -3 20 -14 20 -27 0 -13 11 -33 25 -46 14 -13 25 -31 25 -40 0 -9 32 -47 71 -84 57 -55 70 -73 66 -92 -3 -16 0 -24 9 -24 8 0 14 -10 14 -24 0 -13 7 -29 15 -36 18 -15 20 -64 3 -77 -21 -16 -88 20 -142 76 -27 28 -53 51 -59 51 -5 0 -34 23 -63 50 -29 28 -57 50 -63 50 -12 0 112 -120 125 -120 5 -1 44 -34 88 -75 43 -41 85 -75 93 -75 7 0 27 -16 44 -35 17 -19 38 -35 46 -35 9 0 37 -19 64 -42 64 -58 100 -84 125 -92 12 -4 29 -15 39 -26 10 -11 22 -20 28 -20 5 0 25 -13 44 -30 18 -16 40 -30 48 -30 7 0 22 -11 33 -25 11 -14 27 -25 35 -25 8 0 20 -7 27 -15 7 -8 21 -15 31 -15 11 0 19 -4 19 -8 0 -10 99 -62 116 -62 7 0 19 -11 28 -25 9 -14 21 -25 27 -25 28 0 203 -96 222 -122 19 -26 23 -27 33 -13 19 25 68 16 72 -13 2 -13 -2 -30 -8 -38 -10 -11 -10 -14 0 -14 20 0 90 -33 90 -42 0 -4 9 -8 19 -8 27 0 81 -30 104 -57 10 -13 27 -23 38 -23 11 0 22 -7 25 -15 4 -8 14 -15 24 -15 10 0 23 -7 30 -15 7 -8 17 -12 22 -9 5 3 0 13 -11 21 -12 8 -21 23 -21 34 0 15 7 19 33 20 31 1 31 1 -18 24 -28 12 -57 30 -64 39 -7 9 -22 16 -32 16 -10 0 -24 9 -31 21 -7 11 -34 29 -60 40 -43 19 -57 38 -58 76 0 25 38 35 69 18 17 -8 39 -15 50 -15 11 0 26 -7 35 -15 22 -22 36 -18 36 10 0 29 31 35 52 10 33 -40 64 -65 80 -65 10 0 23 -9 30 -20 7 -11 31 -29 53 -40 30 -14 44 -30 54 -55 7 -19 19 -35 26 -35 8 0 30 -13 48 -30 19 -16 38 -30 42 -30 4 0 18 -11 31 -25 18 -20 33 -25 68 -25 25 0 48 5 51 10 3 6 17 10 30 10 13 0 27 -4 30 -10 3 -5 17 -10 30 -10 13 0 27 -4 30 -10 11 -18 35 -11 35 10 0 13 7 20 19 20 26 0 37 18 17 26 -21 8 -20 33 0 55 24 26 10 37 -41 31 -35 -3 -50 0 -65 13 -19 17 -21 17 -38 2 -23 -21 -46 -22 -62 -2 -7 9 -21 13 -31 10 -25 -8 -120 46 -139 78 -13 23 -13 28 3 45 18 19 17 20 -26 41 -24 11 -55 21 -70 21 -15 0 -44 11 -65 24 -20 12 -47 26 -58 30 -12 3 -29 15 -39 26 -10 11 -23 20 -28 20 -6 0 -24 11 -41 24 -17 13 -41 26 -53 30 -13 4 -23 12 -23 17 0 19 -135 139 -156 139 -15 0 -24 8 -29 28 -8 32 -52 82 -73 82 -8 0 -34 18 -58 40 -24 22 -49 40 -57 40 -20 0 -121 113 -122 137 -1 12 -7 29 -15 37 -8 10 -11 31 -7 56 3 22 1 40 -4 40 -5 0 -9 -11 -9 -24 0 -46 -10 -56 -55 -56 -26 0 -47 6 -55 15 -7 8 -20 15 -30 15 -10 0 -21 7 -24 15 -3 9 -11 15 -18 14 -7 -2 -35 18 -62 44 -27 27 -58 47 -70 47 -12 0 -31 6 -42 14 -11 8 -31 16 -44 18 -18 2 -26 10 -28 29 -2 16 -34 56 -92 114 -50 49 -90 94 -90 99 0 5 -7 17 -16 27 -24 27 -10 65 36 95 64 43 91 31 196 -82 49 -53 90 -91 92 -85 2 7 -2 20 -10 29 -60 72 -35 143 32 93 50 -37 90 -19 51 23 -34 36 -23 116 16 116 13 0 14 3 5 12 -10 10 -17 10 -32 0 -11 -6 -38 -12 -61 -12 -23 0 -47 -7 -55 -15 -12 -11 -39 -15 -110 -15 -94 0 -95 0 -153 40 -32 22 -70 40 -84 40 -14 0 -29 5 -32 10 -3 6 -30 10 -58 10 l-52 0 0 -41z m1207 -1133 c10 -15 -10 -46 -31 -46 -10 0 -24 -7 -31 -16 -9 -10 -26 -14 -49 -12 -33 3 -36 6 -36 33 0 27 3 30 38 33 20 2 37 7 37 12 0 20 58 17 72 -4z"/>
      <path d="M7486 16341 c-11 -12 -14 -21 -7 -26 6 -3 11 -20 11 -37 0 -26 2 -29 15 -18 8 7 15 25 15 41 0 15 5 31 10 34 13 8 3 25 -14 25 -7 0 -21 -9 -30 -19z"/>
      <path d="M8370 16285 c13 -14 30 -25 38 -25 10 0 7 8 -9 25 -13 13 -30 25 -38 25 -10 0 -7 -8 9 -25z"/>
      <path d="M16520 16288 c0 -16 5 -28 10 -28 13 0 13 20 0 40 -8 12 -10 9 -10 -12z"/>
      <path d="M15595 16135 c-5 -11 -15 -29 -24 -40 -8 -11 -2 -8 13 6 16 15 26 33 23 40 -3 10 -7 8 -12 -6z"/>
      <path d="M16366 16142 c-3 -3 -6 -18 -6 -32 0 -15 -7 -33 -15 -40 -8 -7 -15 -25 -15 -41 0 -24 4 -29 24 -29 34 0 44 17 48 82 2 47 0 58 -14 61 -9 3 -19 2 -22 -1z"/>
      <path d="M8500 15843 c25 -2 49 -8 55 -14 14 -14 87 -11 83 4 -3 8 -32 12 -94 13 -49 0 -69 -1 -44 -3z"/>
      <path d="M8714 15841 c6 -9 82 -51 92 -51 14 0 -12 22 -46 40 -43 22 -54 25 -46 11z"/>
      <path d="M15895 15769 c-10 -15 1 -23 20 -15 9 3 13 10 10 16 -8 13 -22 13 -30 -1z"/>
      <path d="M14728 15725 c3 -31 9 -45 19 -45 20 0 14 84 -7 88 -12 2 -14 -7 -12 -43z"/>
      <path d="M16815 15740 c-3 -5 -16 -10 -29 -10 -12 0 -27 -5 -32 -10 -6 -6 -25 -12 -43 -15 -34 -4 -48 -11 -39 -20 3 -3 33 -6 67 -7 42 -1 65 -6 68 -15 8 -22 23 -15 23 11 0 14 4 28 10 31 5 3 15 15 20 26 9 16 7 19 -14 19 -14 0 -28 -4 -31 -10z"/>
      <path d="M16577 15683 c-13 -12 -7 -33 8 -33 8 0 15 9 15 20 0 20 -11 26 -23 13z"/>
      <path d="M16790 15574 c0 -9 -11 -25 -25 -36 -14 -11 -25 -24 -25 -30 0 -7 10 -2 23 9 12 11 37 26 55 33 l32 13 -26 13 c-33 17 -34 17 -34 -2z"/>
      <path d="M17214 15405 c-16 -13 -23 -24 -16 -25 19 0 65 37 54 44 -4 2 -21 -6 -38 -19z"/>
      <path d="M16652 15358 c-17 -20 -20 -28 -9 -28 19 0 40 25 35 43 -2 9 -11 5 -26 -15z"/>
      <path d="M9200 14730 c0 -9 46 -33 88 -45 38 -11 26 -49 -18 -55 -27 -4 -31 -7 -17 -13 10 -4 33 -7 51 -7 36 0 132 -48 161 -80 10 -11 23 -20 28 -20 6 0 19 -7 29 -16 16 -16 18 -16 24 0 9 23 37 20 64 -9 14 -14 35 -25 50 -25 15 0 36 -11 50 -25 24 -26 44 -28 46 -7 1 7 2 17 3 22 0 6 12 10 25 10 14 0 28 -4 31 -10 3 -5 25 -10 48 -10 23 0 55 -7 70 -15 18 -9 35 -11 50 -6 22 9 22 9 -6 20 -16 6 -41 11 -56 11 -30 0 -52 16 -45 34 4 13 -103 66 -134 66 -11 0 -24 5 -27 10 -3 6 -18 9 -33 9 -21 -1 -22 -2 -7 -6 11 -3 25 -11 30 -18 6 -7 19 -14 30 -16 14 -3 20 -12 20 -29 0 -20 -6 -26 -26 -28 -15 -2 -33 4 -42 12 -9 9 -25 16 -36 16 -12 0 -21 5 -21 10 0 6 -8 10 -19 10 -10 0 -24 7 -31 15 -7 8 -19 15 -27 15 -7 0 -26 11 -41 25 -15 14 -32 25 -39 25 -7 0 -29 18 -49 40 -21 22 -45 40 -54 40 -10 0 -23 7 -30 15 -7 8 -29 15 -49 15 -20 0 -45 7 -55 15 -23 17 -36 19 -36 5z"/>
      <path d="M11912 14539 c2 -7 10 -15 17 -17 8 -3 12 1 9 9 -2 7 -10 15 -17 17 -8 3 -12 -1 -9 -9z"/>
      <path d="M12134 14518 c-22 -24 -25 -29 -9 -23 11 4 35 10 53 13 36 5 38 8 18 28 -21 20 -29 18 -62 -18z"/>
      <path d="M10280 14405 c-10 -12 -7 -19 17 -39 15 -14 35 -26 44 -26 24 0 39 -22 39 -57 0 -39 -27 -55 -81 -46 -29 4 -31 3 -20 -11 9 -11 30 -16 61 -16 29 0 52 -6 59 -14 8 -10 23 -13 45 -9 22 3 36 0 45 -11 9 -11 30 -16 66 -16 35 0 57 -5 65 -15 7 -9 29 -15 51 -15 21 0 41 -4 44 -10 3 -5 30 -10 59 -10 35 0 58 -5 66 -15 8 -10 30 -15 61 -15 26 0 51 -4 54 -10 3 -5 28 -10 54 -10 26 0 56 -7 67 -15 10 -8 41 -15 68 -15 27 0 57 -6 65 -14 19 -16 181 -29 181 -15 0 5 -8 12 -17 15 -10 4 -37 15 -60 25 -24 10 -51 19 -61 19 -10 0 -29 10 -42 22 -17 16 -34 21 -61 20 -20 -2 -40 2 -44 8 -11 18 -87 50 -119 50 -17 0 -40 7 -50 15 -11 8 -30 15 -43 15 -13 0 -31 4 -41 9 -33 17 -89 31 -122 31 -29 0 -155 53 -170 71 -3 4 -25 16 -50 27 -25 11 -54 30 -64 41 -14 16 -31 21 -66 21 -30 0 -52 6 -60 15 -16 19 -24 19 -40 0z"/>
      <path d="M11390 14331 c8 -5 26 -12 40 -16 24 -7 24 -7 5 9 -11 8 -29 15 -40 15 -16 0 -17 -1 -5 -8z"/>
      <path d="M11568 14290 c-3 -19 1 -31 14 -39 27 -17 38 -13 38 13 0 17 7 26 25 30 41 10 29 22 -24 23 -46 1 -49 -1 -53 -27z"/>
      <path d="M10200 14250 c20 -13 53 -13 45 0 -3 6 -18 10 -33 10 -21 0 -24 -2 -12 -10z"/>
      <path d="M13313 14028 c-37 -18 -26 -28 28 -28 l52 0 -26 20 c-14 11 -27 20 -29 19 -1 0 -13 -5 -25 -11z"/>
      <path d="M12160 13930 c0 -5 7 -10 15 -10 8 0 15 5 15 10 0 6 -7 10 -15 10 -8 0 -15 -4 -15 -10z"/>
      <path d="M12285 13930 c3 -5 42 -10 86 -10 51 0 78 4 74 10 -3 6 -42 10 -86 10 -51 0 -78 -4 -74 -10z"/>
    </g>
  </g>
</svg>