<svg id="Agrupar_2_copiar" data-name="Agrupar 2 copiar" xmlns="http://www.w3.org/2000/svg" width="200.016" height="200.016" viewBox="0 0 1080 1080">
  <defs>
    <style>
      .cls-1 {
        fill: #cfb53b;
      }

      .cls-2 {
        fill: #fff;
      }

      .cls-3 {
        fill: #fbfbfb;
        fill-rule: evenodd;
      }
    </style>
  </defs>
  <circle id="Elipse_1" data-name="Elipse 1" class="cls-1" cx="540" cy="540" r="528"/>
  <circle id="Elipse_1_copiar" data-name="Elipse 1 copiar" class="cls-2" cx="540.001" cy="540.001" r="497.189"/>
  <circle id="Elipse_1_copiar_2" data-name="Elipse 1 copiar 2" class="cls-1" cx="539.983" cy="539.983" r="472.608"/>
  <g id="Agrupar_3" data-name="Agrupar 3">
    <path id="Forma_6" data-name="Forma 6" class="cls-3" d="M505.531,812.815c-30.309-49.606-45.015-106.855-41.19-164.645a277.166,277.166,0,0,1,36.613-120.053,190.012,190.012,0,0,0-54.92-42.3c-33.29-16.89-63.192-19.717-90.389-20.58-69.113-2.193-117.835,10.537-163.616-11.434-29.042-13.938-51.92-36.992-69.68-66.052a206.785,206.785,0,0,1,6.984-19.556c2.447-5.9,5.553-11.9,8.381-18.158,2.387-5.281,4.755-10.994,6.984-15.365a171.3,171.3,0,0,1,9.778-16.762c8.747,38.885,33.657,73.271,70.734,87.872,18.379,7.237,38.383,9.008,58.353,5.716-22.261-30.722-35.975-65.378-38.9-101.759-1.121-13.931-.533-29.729,2.006-47.7A256.282,256.282,0,0,1,269.016,188c6.853-5.377,13.746-10.431,20.952-15.365,5.08-3.478,12.813-8.354,19.556-12.572,12.336-7.715,24.174-14.8,34.92-19.555,4.621-2.044,9.224-3.886,13.969-5.587-24.475,26.658-41.883,57.623-50.823,91.347-10.8,40.752-18.493,110.494,22.883,155.5,26.9,29.256,66.615,42.657,107.552,42.305,1.106-53.529-18.609-108.317-62.929-133.774a109.415,109.415,0,0,0-43.479-13.721,68.254,68.254,0,0,1,13.73-45.734,134.01,134.01,0,0,1,93.822,42.3,203.952,203.952,0,0,1,30.99-78.162c33.7-50.531,88.224-81.787,148.063-92.19,5.2,0.836,10.24,1.751,15.365,2.793a284.641,284.641,0,0,1,27.937,6.984c1.735,0.549,5.558,1.848,8.381,2.794,4.188,1.4,8.369,2.8,12.571,4.191-49.745,4.569-96.048,24.38-131.3,58.666-17.4,16.923-34.226,39.824-47.933,72.057-17.667,41.545-22.273,81.886-17.718,117.911a221.321,221.321,0,0,0,52.043,116.479,205.262,205.262,0,0,0,14.874-253.827,119.816,119.816,0,0,1,35.469-40.018,121.028,121.028,0,0,1,43.479,84.609,115.376,115.376,0,0,1,98.4-44.591,89.217,89.217,0,0,1,13.73,49.164c-17.624-.429-34.256,2.91-49.2,10.291-41.6,20.546-67.976,71.44-66.362,133.774,42.768,1.519,89.165-8.86,117.849-41.162,49.189-55.393,41.529-170.023-47.964-257.766a308.194,308.194,0,0,1,29.334,12.571c4.8,2.355,9.115,4.82,13.9,7.2,6.537,3.252,12.26,5.8,18.227,9.562a131.4,131.4,0,0,1,18.158,13.968c3.521,3.2,7.409,6.442,9.778,9.778,27.664,38.946,40.908,86.261,36.37,133.8a197.1,197.1,0,0,1-42.334,104.046A115.127,115.127,0,0,0,919.937,310.921q3.5,6.266,6.984,12.571c2.849,5.159,6.128,11.124,8.381,15.365,6.342,11.941,11.917,23.5,15.365,33.524,1.589,4.622,2.974,9.236,4.19,13.968a143.846,143.846,0,0,1-25.143,34.921c-18.5,18.861-44.444,33.684-83.809,43.3-74.162,18.119-110.689-12.464-184.768,6.377-31.069,7.9-53.2,19.482-69.794,32.015-45.339,34.247-66.6,85.491-73.227,126.913-7.006,43.794.544,88.426,20.6,128.057a301.106,301.106,0,0,0,17.163-65.171,213.576,213.576,0,0,0,2.288-36.588,196.784,196.784,0,0,0-4.577-36.588A114.169,114.169,0,0,1,579.9,560.131a215.43,215.43,0,0,1,19.451,44.591c37.847,123.3-45.75,246.312-81.236,290.415a415.872,415.872,0,0,1-82.878,77.879,180.456,180.456,0,0,1-18.159-4.191c-5.1-1.456-12.879-4.306-16.762-5.587-5.786-1.909-11.615-3.573-16.761-5.587a156.911,156.911,0,0,1-15.366-6.984,245.467,245.467,0,0,0,48.482-28.983,295.176,295.176,0,0,0,31.65-28.833A334.682,334.682,0,0,0,505.531,812.815Zm-64.074-224.1a118.091,118.091,0,0,1-98.4-98.329,111.269,111.269,0,0,0-16.018,1.143c-6.48.943-12.47,2.72-19.451,3.43a84.635,84.635,0,0,1-17.162,0,144.178,144.178,0,0,0,40.045,99.473c-35.953,16.441-77.863,13.157-109.84-9.147-35.383-24.68-53.329-69.1-44.622-113.193a147.138,147.138,0,0,1-51.487-40.018,200.148,200.148,0,0,0-5.721,66.315c2.165,26.629,8.764,49.509,18.306,68.6,20.341,40.7,56.157,70.736,98.4,88.039a266.954,266.954,0,0,0-48.055,59.455,283.064,283.064,0,0,0-13.5,25.844,309.218,309.218,0,0,0-13.888,35.734c3.438,6.7,7.146,13.192,11.175,19.556a285.868,285.868,0,0,0,18.73,25.864c3.285,4.08,6.59,7.989,10.071,11.913,14.4-81.244,62.67-156.185,138.443-182.939,28.549-10.08,59.188-12.551,90.39-8A247.6,247.6,0,0,1,441.457,588.715ZM629.1,589.859a256.529,256.529,0,0,1,9.154,54.881c31.814-5.607,63.241-3.926,92.677,5.717,76.78,25.152,128.226,99.91,144.307,184.273Q884,826.794,892,817.968c5.11-5.637,12.016-14.324,18.159-22.349,2.836-3.706,5.6-7.388,8.381-11.175a227.916,227.916,0,0,0-78.913-130.557A188.162,188.162,0,0,0,952.063,431.048,69.332,69.332,0,0,1,936.7,449.206c-5.934,4.9-22.578,16.954-30.73,20.953-0.917.45-4.093,1.961-4.19,4.19a4.307,4.307,0,0,0,1.4,2.794c1.016,1.273,1.944,5.6,1.4,11.174-0.339,3.452-5.388,44.591-28.331,71.814-19.583,23.236-42.955,36.486-66.362,41.161a113.09,113.09,0,0,1-68.649-8,112.3,112.3,0,0,0,18.076-19.866,116.464,116.464,0,0,0,12.816-23.582,134.368,134.368,0,0,0,9.53-54.539,106.777,106.777,0,0,1-19.828-2.63c-6.223-1.442-10.8-2.836-17.162-3.43a59.854,59.854,0,0,0-18.307,1.144A106.4,106.4,0,0,1,629.1,589.859ZM458.62,119.935c-42.868,12.8-67.909,40.127-69.794,67.459a54.128,54.128,0,0,0,4.576,25.154,65.1,65.1,0,0,0,32.037-9.147C449.334,188.838,462.994,157.169,458.62,119.935Zm77.8,150.924c-21.589,25.826-32.545,59.063-28.6,92.613a119.714,119.714,0,0,0,27.46,62.885,113.38,113.38,0,0,0,29.748-58.312C571.174,332.925,559.574,297.573,536.423,270.859Zm106.942-33.97c-7.68-10.7-12.171-22.583-12.571-34.921-0.907-27.909,19.212-57.555,55.873-72.635,15.242,33.531,10.423,67.535-8.381,88C669.2,227.226,657.063,233.743,643.365,236.889Zm95.575,70.558a76.489,76.489,0,0,0-72.082,82.322,77.338,77.338,0,0,0,48.055-20.58C731.864,353.262,740.273,330.506,738.94,307.447Zm101.831,69.745a80.7,80.7,0,0,1,0-53.738c8.357-23.279,27.2-40.956,50.343-49.165,8.29,23.07,6.256,48.838-6.865,69.746A79.025,79.025,0,0,1,840.771,377.192ZM181.732,293.727c-8.427,25.992-1.125,51.866,16.018,66.315,10.813,9.113,24.793,13.118,38.9,12.577a63.175,63.175,0,0,0-3.433-42.305C223.763,309.824,203.722,296.774,181.732,293.727Zm226.545,93.756c-16.424,2.2-33.159-1-46.911-10.291-21.07-14.228-32.561-41.083-28.6-69.745,28.041,1.137,54.452,14.854,67.505,38.875A71.8,71.8,0,0,1,408.277,387.483ZM211.48,491.529c-5.494,39.638,10.39,71.321,34.325,82.322,9.963,4.58,21.314,5.576,33.181,3.431,3.939-8.807,5.554-17.644,4.577-26.3C280.643,525.127,254.455,500.007,211.48,491.529Zm250.572,58.312a78.374,78.374,0,0,0-27.46-40.018,79.462,79.462,0,0,0-60.64-14.864c0.66,23.677,13.921,44.853,34.325,54.882C425.281,558.2,445.091,557.8,462.052,549.841Zm151.03,0a66.349,66.349,0,0,0,46.911-2.287c21.456-9.573,35.651-30.336,38.9-53.738-26.313-3.645-53.837,3.82-70.938,24.011A68.532,68.532,0,0,0,613.082,549.841Zm246.791-55.936c-27.934,5.4-53.37,21.969-63.725,47.932a70.484,70.484,0,0,0-4.576,32.014c15.845,2.806,32.432.17,45.766-9.147,24.023-16.783,26.054-44.156,25.208-56.527A62.723,62.723,0,0,0,859.873,493.905ZM104.19,609.841c-0.034,43.189,21.508,73.365,46.1,78.222,9.784,1.933,20.238-.122,30.73-5.587,3.659-10.718,4.271-21.169,1.4-30.73C175.105,627.438,145.126,608.309,104.19,609.841Zm867.429-5.587c-42.528,3.9-71.156,25.716-78.222,51.683a55.656,55.656,0,0,0,0,27.936c12.85,6.011,26.58,8.168,39.111,4.19C958.3,679.877,977.512,646.273,971.619,604.254ZM766.4,722.489c-26.5-41.727-64.531-58.862-92.677-50.308-9.931,3.018-18.757,9.275-26.316,18.294,3.188,10.887,8.509,20.186,16.018,27.441C684.756,738.524,724.237,743.02,766.4,722.489Zm-462.243,2.287c26.54-41.429,63.987-59.8,94.966-53.738a65.8,65.8,0,0,1,28.6,13.72,67.283,67.283,0,0,1-16.018,28.584C389.68,736.186,348.765,742.72,304.157,724.776Z"/>
    <path id="Forma_7" data-name="Forma 7" class="cls-3" d="M521.549,839.112a465.831,465.831,0,0,0,64.073,88.04c6.424,6.946,13.46,14.244,18.917,19.3a260.664,260.664,0,0,0,36.032,27.963c7.963-2.393,16.041-4.773,23.746-6.984,6.243-1.792,12.161-3.6,18.159-5.588,5.369-1.778,10.509-3.632,15.365-5.587,3.322-1.337,6.528-2.711,9.778-4.191A317.258,317.258,0,0,1,563.883,797.951,33.689,33.689,0,0,0,521.549,839.112Zm83.524-202.375a215.794,215.794,0,0,0-41.19-115.48c-5.215-13.079-18.162-20.823-30.893-19.438-14.923,1.625-27,15.482-26.315,32.015a182.716,182.716,0,0,1,27.46,36.587c18.244,32.036,26.106,68.7,24.027,106.333,0.343,12.5,4.172,20.542,9.153,21.724,3.668,0.871,9.63-3.37,17.163-13.72C594.445,671.064,601.226,654.852,605.073,636.737Z"/>
  </g>
</svg>
