<?xml version="1.0" standalone="no"?>
<!DOCTYPE svg PUBLIC "-//W3C//DTD SVG 20010904//EN"
 "http://www.w3.org/TR/2001/REC-SVG-20010904/DTD/svg10.dtd">
<svg version="1.0" xmlns="http://www.w3.org/2000/svg"
 width="1080.000000pt" height="1080.000000pt" viewBox="0 0 1080.000000 1080.000000"
 preserveAspectRatio="xMidYMid meet">
<metadata>
Created by potrace 1.14, written by Peter Selinger 2001-2017
</metadata>
<g transform="translate(0.000000,1080.000000) scale(0.100000,-0.100000)"
fill="#000000" stroke="none">
<path d="M5149 10676 c-2 -2 -51 -6 -109 -10 -143 -9 -188 -13 -243 -20 -26
-3 -68 -8 -94 -11 -27 -3 -59 -8 -73 -10 -14 -3 -38 -7 -55 -9 -16 -3 -46 -8
-65 -11 -19 -4 -48 -8 -64 -10 -15 -3 -35 -7 -45 -9 -9 -3 -30 -8 -48 -11 -62
-10 -289 -65 -393 -94 -401 -113 -881 -316 -1189 -502 -34 -22 -65 -39 -67
-39 -8 0 -265 -167 -356 -231 -252 -179 -434 -334 -679 -578 -226 -227 -392
-421 -577 -676 -217 -300 -450 -729 -595 -1095 -133 -333 -254 -760 -301
-1060 -3 -19 -8 -46 -10 -59 -3 -13 -8 -49 -12 -80 -3 -31 -8 -64 -9 -73 -2
-9 -7 -48 -10 -85 -4 -37 -9 -81 -11 -98 -26 -210 -26 -807 1 -1025 2 -19 7
-57 10 -85 6 -57 15 -128 21 -164 7 -50 18 -116 19 -121 1 -3 5 -27 9 -55 4
-27 12 -66 16 -85 5 -19 11 -46 14 -60 2 -14 12 -56 21 -95 9 -38 18 -77 20
-85 33 -151 127 -446 210 -660 100 -258 255 -571 398 -805 58 -95 151 -240
157 -245 4 -3 21 -27 40 -55 75 -112 190 -258 348 -445 50 -58 427 -438 477
-480 170 -142 227 -188 312 -253 160 -121 534 -367 557 -367 5 0 20 -9 35 -20
40 -28 317 -168 451 -228 208 -93 466 -186 682 -247 108 -31 382 -97 453 -110
17 -2 41 -7 55 -10 14 -3 45 -8 70 -11 25 -3 47 -7 50 -9 3 -2 32 -6 65 -10
33 -3 69 -8 80 -10 29 -5 113 -15 165 -20 174 -16 277 -20 515 -20 293 0 450
8 620 31 22 3 58 7 80 10 56 7 97 13 120 18 11 2 43 7 70 10 28 4 68 11 90 16
22 5 54 11 72 15 65 11 291 65 393 94 750 212 1462 601 2049 1118 95 84 409
398 478 478 44 51 131 155 192 230 35 44 130 174 186 254 59 87 215 329 215
335 0 2 22 41 49 88 144 251 311 631 408 928 91 281 179 657 208 885 4 28 8
61 11 75 2 14 6 54 10 90 3 36 7 76 9 89 20 120 27 677 12 886 -11 152 -23
270 -33 319 -2 11 -6 41 -9 67 -8 68 -53 308 -76 409 -12 47 -22 93 -24 102
-37 178 -185 617 -269 802 -14 31 -26 59 -26 61 0 11 -161 334 -204 410 -25
44 -48 87 -52 95 -13 27 -85 142 -170 271 -126 192 -246 350 -432 569 -51 60
-377 388 -457 461 -338 305 -774 597 -1211 809 -138 68 -446 200 -465 200 -5
0 -17 4 -27 10 -35 20 -330 111 -501 154 -154 39 -318 74 -430 92 -18 3 -43 7
-54 10 -20 3 -133 19 -212 29 -22 2 -71 7 -110 11 -38 3 -86 8 -105 11 -39 5
-646 14 -651 9z"/>
</g>
</svg>
