<?xml version="1.0" standalone="no"?>
<!DOCTYPE svg PUBLIC "-//W3C//DTD SVG 20010904//EN"
 "http://www.w3.org/TR/2001/REC-SVG-20010904/DTD/svg10.dtd">
<svg version="1.0" xmlns="http://www.w3.org/2000/svg"
 width="1080.000000pt" height="1080.000000pt" viewBox="0 0 1080.000000 1080.000000"
 preserveAspectRatio="xMidYMid meet">
<metadata>
Created by potrace 1.14, written by Peter Selinger 2001-2017
</metadata>
<g transform="translate(0.000000,1080.000000) scale(0.100000,-0.100000)"
fill="#000000" stroke="none">
<path d="M5119 10126 c-2 -2 -49 -7 -104 -10 -55 -4 -113 -9 -130 -11 -16 -2
-52 -7 -80 -10 -27 -3 -75 -10 -105 -15 -30 -5 -71 -11 -90 -14 -76 -11 -260
-49 -355 -72 -1140 -286 -2116 -972 -2787 -1959 -405 -596 -679 -1330 -763
-2044 -4 -30 -8 -62 -10 -72 -19 -98 -27 -704 -12 -889 7 -91 23 -237 32 -290
2 -14 11 -69 20 -123 18 -116 56 -294 85 -404 42 -153 49 -179 83 -283 325
-986 973 -1846 1832 -2432 682 -465 1460 -738 2300 -807 129 -11 595 -11 705
-1 47 5 121 12 165 15 44 4 82 9 85 10 3 2 32 6 64 10 105 11 371 64 528 105
1017 264 1900 847 2556 1689 153 196 327 469 456 713 124 236 275 613 337 838
7 25 14 50 15 55 62 226 114 486 139 690 3 28 8 64 10 80 20 156 28 677 12
880 -103 1357 -802 2616 -1902 3430 -470 347 -961 587 -1555 759 -118 34 -400
94 -520 111 -25 3 -72 10 -105 15 -33 5 -94 12 -135 15 -41 4 -86 9 -100 12
-30 6 -664 15 -671 9z"/>
</g>
</svg>
